<svg width="201px" height="203px" viewBox="0 0 201 203" version="1.1" xmlns="http://www.w3.org/2000/svg" xmlns:xlink="http://www.w3.org/1999/xlink">
    <title>infernal-emblem</title>
    <g id="Page-1" stroke="none" stroke-width="1">
        <g id="infernal-emblem" transform="translate(0.5694, 0.9194)" fill-rule="nonzero">
            <path d="M88.685863,0.335987736 C88.5220808,0.510006386 87.8567154,1.15489903 87.2322955,1.7690825 C86.5976392,2.39350236 86.0755833,2.96674027 86.0755833,3.0486314 C86.0755833,3.13052253 85.9834558,3.47855983 85.8810919,3.82659713 C85.7684916,4.16439804 85.6251821,4.65574482 85.5535273,4.9116546 C85.492109,5.16756438 85.3385631,5.66914755 85.2361992,6.03765763 C84.8574527,7.29673374 84.6731977,7.93139 84.550361,8.3920276 C84.314924,9.25188446 84.0078323,10.28576 83.9157048,10.521197 C83.8645228,10.6542701 83.8235772,10.8487615 83.8235772,10.9613618 C83.8235772,11.0637257 83.7826317,11.2377444 83.7314497,11.3401083 C83.6802678,11.4322358 83.5881402,11.698382 83.5267219,11.9235826 C83.4755399,12.1487832 83.3322305,12.6503663 83.2093938,13.0495856 C83.0967935,13.4385685 82.9637204,13.9299152 82.902302,14.1244067 C82.5747375,15.3323008 82.3597733,16.0386118 82.2778822,16.1921577 C82.2267002,16.2945216 82.1857546,16.4685403 82.1857546,16.5709042 C82.1857546,16.6835045 82.1448091,16.8779959 82.0936271,17.011069 C82.0424452,17.1441421 81.8991357,17.5945433 81.776299,18.0142353 C81.2440067,19.836313 80.7936054,21.3103533 80.650296,21.6481542 C80.599114,21.7607545 80.4660409,22.1702101 80.3432042,22.5694294 C80.2306039,22.9584123 80.0975308,23.3781043 80.0463489,23.4907046 C79.9951669,23.6033049 79.9030394,23.8796875 79.8416211,24.1048881 C79.7699663,24.3300887 79.6778388,24.6064712 79.6266568,24.7190715 C79.5754749,24.8316719 79.421929,25.2411275 79.2888559,25.6403468 C78.7770364,27.0836779 78.3982899,28.0766079 78.244744,28.3836996 C78.1628529,28.5474819 78.0911982,28.7522097 78.0911982,28.8238644 C78.0911982,28.8955192 78.009307,29.1104834 77.9069431,29.2947384 C77.8045792,29.4789935 77.6612697,29.7963216 77.589615,29.990813 C77.2620505,30.881379 76.1974658,32.8774753 75.6754098,33.5735499 C75.0407536,34.4436432 73.7202591,35.9279199 73.587186,35.9279199 C73.3312763,35.9279199 73.167494,35.354682 73.0958393,34.2593881 C73.0241845,33.1948035 73.0139481,33.1129123 72.8092203,33.0822032 C72.5021286,33.0412576 71.4375439,34.0444239 71.1304522,34.6688438 C70.9973791,34.93499 70.8028876,35.2830273 70.7005237,35.4365731 C70.5981598,35.5798826 70.5162687,35.7539013 70.5162687,35.825556 C70.5162687,35.8869743 70.3831956,36.1428841 70.209177,36.3885575 C70.0453947,36.6342309 69.9020852,36.8799043 69.9020852,36.9413226 C69.9020852,37.002741 69.8099577,37.2074688 69.6973574,37.4121966 C69.5847571,37.6169244 69.4926296,37.8216523 69.4926296,37.8830706 C69.4926296,38.1901624 68.7351366,39.5720752 68.3052082,40.0224764 C67.7831522,40.5854779 66.7697495,41.138243 66.1043841,41.2201341 C65.2342908,41.3429708 64.8657808,40.6059507 65.1421633,39.357111 C65.551619,37.5452697 65.6335101,36.5113942 65.3776003,36.4602122 C64.7429441,36.3373756 61.4468261,38.7224547 59.3995479,40.8004421 C58.7137096,41.4965167 57.413688,43.0319754 57.2191965,43.3800127 C57.0963598,43.5949769 56.7176134,43.4107219 56.1648482,42.8579567 C55.7758654,42.4792103 55.7758654,42.4792103 55.7758654,41.2508433 C55.7758654,40.4524048 55.8270473,39.8279849 55.9396476,39.4390021 C56.3286305,37.9956709 56.3183941,37.9035434 55.7758654,38.0263801 C55.6325559,38.0570893 55.2231003,38.128744 54.8545902,38.179926 C54.4860801,38.2311079 53.830951,38.3744174 53.4010226,38.4870177 C51.7734364,38.9067097 51.108071,39.0909648 50.7600337,39.2035651 C50.5655423,39.2649834 50.2686869,39.357111 50.0946683,39.4082929 C49.460012,39.5823116 46.9520962,40.5138232 46.1843668,40.8516241 C45.9386934,40.953988 45.7237292,41.0461155 45.6930201,41.0461155 C45.559947,41.0461155 42.7551758,42.3973191 41.8543734,42.8989023 C40.3905694,43.7075772 40.1551324,43.8406503 40.0015866,43.9737234 C39.9196954,44.0556145 39.8070951,44.1170329 39.7661496,44.1170329 C39.7047312,44.1170329 38.9574746,44.6083796 37.7598169,45.4580001 C34.9141001,47.4643328 31.5770366,51.15967 28.6596651,55.5203726 C28.1478456,56.2778656 27.7281535,56.9329946 27.7281535,56.9739402 C27.7281535,57.0046494 27.6462624,57.1581952 27.5336621,57.3015047 C27.2470431,57.7109604 26.8375875,58.4275077 26.5304957,59.062164 C26.1824584,59.768475 24.1147074,61.8669352 23.0194136,62.6244281 C22.5997215,62.9110471 21.8115194,63.4535758 21.2792271,63.8220859 C20.7469347,64.2008324 20.204406,64.5386333 20.0815693,64.5898152 C19.968969,64.6409972 19.8358959,64.7228883 19.8051867,64.7843067 C19.7642412,64.8354886 19.6106953,64.9480889 19.4571494,65.0299801 C19.3036036,65.1016348 19.0169846,65.2654171 18.8224932,65.3780174 C18.4130375,65.6134544 17.7988541,65.7465274 17.6453082,65.6339271 C17.2870345,65.3780174 17.1027795,62.7882104 17.379162,61.887408 C17.5531807,61.2936973 17.5941262,60.4133676 17.4405804,60.3519493 C16.8059241,60.1165123 11.6979649,64.5283969 8.74988425,67.8654604 C8.38137417,68.2851525 7.65459039,69.1040637 7.15300722,69.6773017 C6.64118766,70.2505396 6.23173202,70.7418863 6.23173202,70.7828319 C6.23173202,70.8135411 6.09865893,71.0182689 5.93487667,71.2229967 C5.64825772,71.5812704 3.97972595,74.2836777 3.97972595,74.3860416 C3.97972595,74.4167508 3.89783482,74.5600603 3.78523452,74.7033697 C3.37577887,75.286844 2.28048502,77.3750678 2.03481163,78.0506696 C1.99386606,78.16327 1.91197493,78.3782342 1.8403202,78.53178 C1.64582876,79.0231268 1.55370124,79.2688002 1.43086455,79.6884922 C1.35920981,79.9136928 1.26708229,80.1900754 1.21590033,80.3026757 C1.1340092,80.4971671 0.919044988,81.2956057 0.693844382,82.24759 C0.642662426,82.4727906 0.530062123,83.0460285 0.448170994,83.5271389 C0.366279864,84.0082493 0.24344317,84.60196 0.182024823,84.8578698 C0.120606476,85.1137796 0.0387153461,86.198837 0.0182425637,87.2736581 C-0.0431757834,89.3823547 0.0182425637,89.7508648 0.714317165,91.2760871 C0.816681077,91.5217605 0.908808597,91.7367247 0.908808597,91.7776702 C0.908808597,91.849325 1.50251929,93.1288739 1.68677433,93.4564384 C2.09622998,94.1729858 2.48521284,95.0840246 2.59781314,95.5958441 C2.85372292,96.7013744 2.87419571,100.642385 2.62852232,102.003825 C2.59781314,102.198316 2.65923149,102.208553 4.54272747,102.208553 C5.69943967,102.218789 6.63095127,102.269971 6.84591549,102.33139 C7.04040692,102.403044 7.408917,102.505408 7.66482678,102.566827 C9.36406772,102.996755 10.2853429,103.754248 14.1035168,107.838568 C17.3075073,111.267759 20.6650436,114.502459 22.4052301,115.83319 C23.0705955,116.345009 25.2304741,117.819049 25.3123652,117.819049 C25.332838,117.819049 25.6501661,117.993068 25.9982034,118.208032 C26.3564771,118.422997 26.8375875,118.678906 27.0627881,118.78127 C27.2879887,118.883634 27.6974443,119.078126 27.9738269,119.211199 C28.2604459,119.344272 28.526592,119.456872 28.5675376,119.456872 C28.6187195,119.456872 28.8746293,119.549 29.1407755,119.671836 C30.0313415,120.071055 31.4951455,120.552166 32.1809837,120.685239 C32.4061843,120.726185 32.8463491,120.838785 33.1534408,120.920676 C33.7676243,121.084458 34.6274812,121.24824 35.5078108,121.371077 C36.6952322,121.534859 40.7897887,121.452968 41.8339006,121.238004 C42.3354837,121.13564 42.1102831,120.756894 41.2811354,120.316729 C40.4008058,119.856091 40.2779691,119.7742 39.6330765,119.334035 C36.0912851,116.877301 34.6581903,114.922151 31.7203461,108.555115 C30.8400164,106.651147 30.7683617,106.425946 30.9628531,106.282637 C31.167581,106.129091 31.0856898,105.842472 30.8195437,105.842472 C30.6250522,105.842472 30.5022155,105.484198 30.2872513,104.307013 C30.225833,103.938503 30.1234691,103.43692 30.0825235,103.18101 C29.5707039,100.550257 29.4478672,98.2982514 29.7242498,96.6297197 C29.8777957,95.6879717 29.9494504,95.3604072 30.0825235,95.043079 C30.1337054,94.9304787 30.225833,94.6540962 30.2974877,94.4288956 C30.46127,93.865894 31.8329464,92.5658724 33.9723521,90.9382862 C35.6306475,89.67921 37.3094157,88.7681712 40.7795523,87.2327125 C41.1787715,87.0586939 41.8031914,86.7823113 42.1819379,86.6082927 C42.5606843,86.434274 42.9291944,86.2909646 43.0008492,86.2909646 C43.0827403,86.2909646 43.1851042,86.250019 43.2362862,86.2090734 C43.2977045,86.1578915 43.7276329,85.9634 44.2087433,85.779145 C44.6898537,85.59489 45.1300185,85.4106349 45.1812005,85.3696893 C45.2426188,85.3389802 45.4780558,85.2468527 45.7237292,85.1649615 C46.2969671,84.9807065 46.4607494,84.7043239 46.6040589,83.5783209 C46.7780775,82.3192448 47.6788799,79.1357271 48.1088084,78.2861066 C48.1599903,78.1837427 48.2009359,78.060906 48.2009359,78.0097241 C48.2009359,77.9073602 48.7229918,76.7199388 48.9481925,76.3104831 C49.0096108,76.1978828 49.1938658,75.8498455 49.3576481,75.5427538 C49.695449,74.8978612 49.9206496,74.6214786 50.0946683,74.6214786 C50.166323,74.6214786 50.2789233,74.5498239 50.350578,74.4679327 C50.6781426,74.0687135 52.8584939,73.1781474 54.3427706,72.8301101 C54.7624626,72.7277462 55.294755,72.6049095 55.5199556,72.5537276 C55.7451562,72.5025456 56.185321,72.4206545 56.4924128,72.3694725 C56.7995045,72.328527 57.3522696,72.2363995 57.7207797,72.1647447 C59.1334017,71.9190713 59.8908946,71.8474166 61.9177001,71.7859982 C63.9445055,71.7348163 64.5484526,71.7757618 65.9098927,72.0726172 C67.2815691,72.3797089 68.0288256,72.6049095 68.5918271,72.8915285 C68.6941911,72.9427104 68.8272641,72.983656 68.8886825,72.983656 C69.2060106,72.983656 70.7005237,73.8332765 70.813124,74.0687135 C70.9564335,74.396278 70.9564335,75.2458985 70.813124,75.6144085 C70.7517057,75.7679544 70.6493418,76.0136278 70.5981598,76.1569373 C70.5367415,76.3002468 70.4446139,76.5049746 70.3831956,76.6175749 C69.4926296,78.296343 69.3493201,78.5420164 68.796555,79.2585638 C68.2437898,79.9751112 67.3532238,81.2751329 67.0563685,81.7971888 C66.9540046,81.9916803 66.6673856,82.5137362 66.4217122,82.9641374 C65.9610746,83.8239943 65.5106734,84.5200689 65.1319269,84.9807065 C64.6303438,85.59489 64.4153795,87.2941309 64.7224713,88.1744605 C64.8657808,88.5839162 65.4594914,89.1264449 66.8925862,90.1296113 C67.2099143,90.3548119 67.5272425,90.5902489 67.5886608,90.6414308 C68.0595348,91.0713592 69.9327944,92.6477635 70.2603589,92.8832005 C70.4855595,93.0469827 70.9666699,93.4871476 71.33518,93.8556576 C71.7036901,94.2241677 72.5021286,95.0123698 73.116312,95.6060805 C73.7202591,96.1997912 74.4060973,96.9368114 74.6312979,97.2439031 C74.8667349,97.5509949 75.1738267,97.9706869 75.3273725,98.1651783 C75.4809184,98.3596698 75.8391921,98.8714893 76.1258111,99.2911814 C77.2927597,100.990422 77.7533973,101.645551 77.9069431,101.81957 C78.1014346,102.044771 79.9337486,104.788123 79.9337486,104.849542 C79.9337486,104.880251 80.1077672,105.197579 80.3227314,105.545616 C80.9778605,106.651147 81.8172446,108.452751 82.0731543,109.322845 C82.1345727,109.517336 82.2676458,109.957501 82.3802461,110.295302 C82.4928464,110.633103 82.6156831,111.175632 82.6566286,111.503196 C82.718047,112.076434 82.9739568,112.496126 83.2401029,112.496126 C83.3834124,112.496126 85.021235,113.908748 85.2464356,114.226076 C85.5740001,114.686714 86.1267653,115.710353 86.4236206,116.385955 C86.4748026,116.529264 86.5976392,116.754465 86.6897668,116.897774 C86.7818943,117.041084 86.904731,117.337939 86.9866221,117.56314 C87.0582769,117.78834 87.1606408,118.074959 87.2118227,118.197796 C87.2630047,118.330869 87.3448958,118.535597 87.3960778,118.658433 C87.4370233,118.791507 87.5291508,119.006471 87.5905692,119.14978 C87.7031695,119.426163 87.8362426,119.856091 88.0102612,120.552166 C88.0716796,120.797839 88.1638071,121.166349 88.2252254,121.371077 C88.5323172,122.578971 88.5425536,122.824645 88.4299533,123.991593 C88.317353,125.158542 88.317353,125.158542 88.6039719,125.660125 C88.7677542,125.936508 90.9583419,130.286974 93.4764941,135.343751 C95.9946464,140.390292 98.1238157,144.56674 98.2057069,144.638394 C98.2773616,144.699813 98.5435078,144.740698 98.7891812,144.720285 C99.229346,144.689576 99.229346,144.689576 99.2805279,137.544575 C99.3317099,130.389338 99.3317099,130.389338 99.6388016,130.143664 C100.017548,129.846809 100.027784,129.846809 100.375822,130.143664 C100.662441,130.389338 100.662441,130.389338 100.682914,137.431975 C100.703386,142.478516 100.744332,144.505321 100.826223,144.597449 C100.94906,144.740698 101.491588,144.79194 101.778207,144.67934 C101.860099,144.648631 104.04045,140.400528 106.609784,135.241387 C109.189355,130.07201 111.379942,125.73178 111.482306,125.578234 C111.646088,125.342797 111.666561,125.10736 111.646088,123.63332 C111.625616,122.578971 111.656325,121.852188 111.72798,121.657696 C111.799634,121.483677 111.901998,121.145877 111.973653,120.889967 C112.301218,119.6616 112.987056,117.614322 113.232729,117.153684 C113.294147,117.041084 113.427221,116.774938 113.529584,116.559973 C113.969749,115.648934 114.102822,115.393025 114.328023,115.004042 C114.839843,114.093003 115.320953,113.581183 116.416247,112.772509 C117.327286,112.096907 117.39894,112.025252 117.39894,111.656742 C117.39894,111.103977 117.79816,109.670882 118.320216,108.350388 C118.555653,107.74644 119.507637,105.883417 119.968275,105.125924 C120.254893,104.644814 120.582458,104.092049 120.695058,103.897557 C120.807659,103.703066 120.991914,103.416447 121.094278,103.262901 C121.206878,103.119592 121.288769,102.966046 121.288769,102.9251 C121.288769,102.884155 121.51397,102.587299 121.780116,102.269971 C122.056498,101.952643 122.527372,101.33846 122.834464,100.898295 C123.141556,100.45813 123.602193,99.7825281 123.878576,99.4140181 C124.144722,99.0352716 124.595123,98.3801426 124.891979,97.9604505 C126.069164,96.2509732 128.853462,93.5792751 132.743291,90.436703 C134.729151,88.839826 134.770096,88.788644 134.862224,87.4988587 C134.944115,86.3933285 134.729151,85.2980346 134.24804,84.3358138 C134.104731,84.0389585 133.981894,83.7625759 133.981894,83.7216304 C133.981894,83.4350114 132.6614,81.5208063 131.760597,80.4971671 C130.440103,79.0128904 130.143247,78.5727256 129.262918,76.8734847 C128.761335,75.9112639 128.658971,75.573463 128.658971,74.81597 C128.658971,74.1403682 128.658971,74.1403682 129.355045,73.689967 C130.122775,73.1883838 130.286557,73.0962563 131.166886,72.7789282 C131.504687,72.6560915 131.873197,72.512782 131.985798,72.4718364 C132.098398,72.4206545 132.333835,72.3592361 132.497617,72.3387634 C132.671636,72.3080542 133.081092,72.2159267 133.418893,72.1340355 C134.596078,71.8371802 135.404752,71.7552891 137.11423,71.7552891 C138.73158,71.7552891 139.489073,71.8167074 141.147368,72.0726172 C141.515878,72.1237991 142.109589,72.2261631 142.478099,72.277345 C143.348192,72.4104181 145.02696,72.7789282 145.323816,72.8915285 C145.456889,72.9427104 145.682089,72.983656 145.845871,72.983656 C145.999417,72.983656 146.1632,73.0143652 146.193909,73.0553107 C146.234854,73.0962563 146.603364,73.2395658 147.01282,73.3828753 C147.903386,73.7002034 149.049862,74.3041505 149.561681,74.7238425 C149.909719,75.0206979 151.179031,77.3443587 151.179031,77.7128687 C151.179031,77.7947599 151.219977,77.8971238 151.260922,77.9585421 C151.434941,78.1427972 152.284562,80.6916586 152.438107,81.4798607 C152.468817,81.6231702 152.57118,82.0326258 152.663308,82.4011359 C152.755436,82.769646 152.908981,83.475957 153.001109,83.9775401 C153.103473,84.5303053 153.236546,84.9192881 153.328673,84.9704701 C153.410565,85.021652 153.809784,85.2059071 154.198767,85.3799257 C156.3177,86.3216737 161.487077,88.9933718 162.459534,89.6485009 C163.063481,90.0579565 163.575301,90.385521 163.60601,90.385521 C163.687901,90.385521 168.007658,93.2721833 168.611605,93.732821 C168.959643,93.9989671 169.19508,94.2651133 169.19508,94.3777136 C169.19508,94.4800775 169.236025,94.5926778 169.287207,94.623387 C169.338389,94.6540962 169.410044,94.807642 169.440753,94.9611879 C169.481699,95.1249702 169.553353,95.4320619 169.604535,95.6572625 C169.778554,96.3840463 170.013991,98.4108517 169.962809,98.7281799 C169.9321,98.8919621 169.860445,99.7211098 169.809263,100.57073 C169.604535,103.395974 169.338389,105.074742 168.949406,105.842472 C168.857279,106.026727 168.785624,106.262164 168.785624,106.364528 C168.785624,106.466892 168.744679,106.579492 168.68326,106.610201 C168.632078,106.64091 168.580896,106.78422 168.580896,106.927529 C168.580896,107.060602 168.539951,107.255094 168.488769,107.357458 C168.345459,107.623604 167.966713,108.616534 167.966713,108.718898 C167.966713,108.77008 167.83364,109.107881 167.659621,109.476391 C167.495839,109.844901 167.352529,110.182702 167.352529,110.223647 C167.352529,110.35672 166.175344,112.649672 165.929671,112.987473 C165.817071,113.161491 165.714707,113.33551 165.714707,113.386692 C165.714707,113.437874 165.581634,113.632365 165.407615,113.826857 C165.243833,114.021348 165.11076,114.226076 165.100523,114.267022 C165.08005,114.80955 160.709111,119.252144 160.197292,119.252144 C160.156346,119.252144 160.043746,119.334035 159.951619,119.436399 C159.818545,119.589945 158.743724,120.163183 157.42323,120.787603 C157.064956,120.961622 157.259448,121.227768 157.935049,121.483677 C158.569706,121.729351 158.702779,121.739587 160.954785,121.739587 C162.459534,121.749824 163.565065,121.708878 164.025702,121.616751 C164.424921,121.545096 164.998159,121.442732 165.305251,121.39155 C166.84071,121.115167 167.598203,120.900203 169.297444,120.245074 C170.372265,119.825382 173.289636,118.392287 173.811692,118.013541 C173.965238,117.911177 174.118784,117.819049 174.149493,117.819049 C174.210911,117.819049 174.743204,117.491485 175.582588,116.93872 C175.74637,116.836356 175.981807,116.672574 176.11488,116.590682 C176.237717,116.508791 176.729064,116.17099 177.199938,115.843426 C180.639365,113.417401 182.277188,112.004779 183.730755,110.192938 C187.190655,105.883417 190.425355,102.996755 192.186014,102.638481 C192.349797,102.607772 192.759252,102.515645 193.097053,102.44399 C193.465563,102.362099 194.417548,102.310917 195.502605,102.310917 C197.283737,102.310917 197.508938,102.269971 197.355392,101.962879 C197.130191,101.522715 197.007355,97.8785594 197.171137,96.7832655 C197.30421,95.9643542 197.887684,94.1218038 198.256194,93.3745473 C198.368795,93.1288739 198.471159,92.8729641 198.471159,92.8115457 C198.471159,92.7501274 198.819196,92.0028708 199.249124,91.143014 C200.02709,89.5768461 200.02709,89.5768461 199.986144,86.5775835 C199.955435,84.837397 199.894017,83.3838295 199.822362,83.1176833 C199.760944,82.8617735 199.65858,82.3806631 199.597162,82.0428622 C199.412907,81.0601687 199.167233,80.2003118 198.768014,79.0640724 C198.604232,78.6034348 198.471159,78.2042155 198.471159,78.16327 C198.471159,78.1223244 198.194776,77.6821596 197.856975,77.17034 C197.519174,76.6687568 197.242792,76.1978828 197.242792,76.1262281 C197.242792,76.0545734 197.201846,75.9522095 197.150664,75.8907911 C197.109719,75.8396092 196.925463,75.5427538 196.761681,75.2356621 C196.19868,74.2017866 196.004188,73.874222 195.57426,73.2600386 C195.338823,72.9222377 195.103386,72.5742004 195.041968,72.4820728 C194.724639,71.9600169 192.933271,69.6670653 191.878923,68.4284619 C189.483607,65.6236907 186.535526,62.9212835 183.884301,61.0889694 C183.5465,60.8535324 183.249645,60.6385682 183.218936,60.6078591 C182.891371,60.2291126 182.226006,60.239349 182.348842,60.6283318 C182.389788,60.7511685 182.461443,61.0787331 182.512625,61.365352 C182.55357,61.6417346 182.645698,62.1330813 182.707116,62.4401731 C183.003971,64.0165773 183.096099,65.4291993 182.92208,65.7158183 C182.80948,65.8796005 182.123642,65.8898369 181.95986,65.7260547 C181.898441,65.6646363 181.775605,65.6134544 181.683477,65.6134544 C181.161421,65.6134544 178.735396,64.1803596 177.742466,63.2693208 C175.603061,61.3346428 174.139257,59.6251655 172.573089,57.2707955 C171.938433,56.3188112 171.232122,55.295172 170.996685,54.9983167 C170.761248,54.7014613 170.41321,54.2510601 170.218719,53.984914 C170.024227,53.7290042 169.8195,53.462858 169.758081,53.3912033 C169.287207,52.8589109 168.171441,51.4667617 167.966713,51.1699064 C167.823403,50.9651786 167.147802,50.1974492 166.451727,49.4706654 C163.687901,46.5328212 160.565802,44.0556145 157.812213,42.602047 C157.259448,42.315428 156.727155,42.0288091 156.635028,41.9776271 C156.358645,41.8138448 154.669641,41.0461155 154.608222,41.0461155 C154.577513,41.0461155 154.362549,40.953988 154.116876,40.8516241 C153.205837,40.4421684 150.697921,39.5311296 150.155392,39.4082929 C149.960901,39.3673473 149.500263,39.2240379 149.131753,39.1114376 C148.763243,38.9886009 148.282133,38.8452914 148.056932,38.7941094 C147.831731,38.7429275 147.278966,38.6098544 146.828565,38.4972541 C146.378164,38.3744174 145.753744,38.2413443 145.446652,38.179926 C145.13956,38.128744 144.637977,38.0366165 144.330886,37.9854345 C143.604102,37.8523614 143.40961,38.0263801 143.696229,38.5689088 C143.890721,38.9374189 144.218285,39.7153846 144.218285,39.8177486 C144.218285,39.8791669 144.320649,40.1350767 144.433249,40.3807501 C144.556086,40.6366598 144.627741,40.8720968 144.607268,40.8925696 C144.576559,40.9232788 143.655284,40.9130424 142.549753,40.8720968 C140.533184,40.8106785 140.533184,40.8106785 140.031601,40.2272042 C139.366236,39.4594749 135.834681,36.5421034 135.568535,36.5421034 C135.537826,36.5421034 135.302389,36.3783211 135.036242,36.1735933 C134.268513,35.590119 134.125204,35.5491734 133.828348,35.825556 C133.521256,36.1121749 133.51102,36.2657208 133.756693,36.6239945 C134.340168,37.4838514 134.800805,38.8964733 134.800805,39.7870394 C134.800805,40.5854779 134.585841,41.7626629 134.442532,41.7626629 C134.319695,41.7626629 133.050382,41.1177702 132.651163,40.8516241 C132.507854,40.7594965 132.272417,40.6161871 132.118871,40.5445323 C131.617288,40.2886225 131.433033,39.9917672 129.672373,36.480685 C128.710153,34.5767163 127.881005,32.9491301 127.819587,32.8774753 C127.625095,32.6522747 127.133748,32.7239295 127.082566,32.9798392 C127.000675,33.3790585 126.81642,36.3476119 126.81642,37.1665232 C126.81642,37.9547254 126.81642,37.9547254 126.437674,37.8216523 C126.22271,37.7499975 126.038455,37.6271608 126.007745,37.5555061 C125.987273,37.473615 125.884909,37.2995963 125.792781,37.1562868 C125.311671,36.4602122 124.871506,35.590119 124.46205,34.4948251 C124.277795,34.0137148 124.083304,33.5121316 124.032122,33.3688221 C123.878576,33.0105484 123.786448,32.7546386 123.643139,32.345183 C123.571484,32.1506916 123.438411,31.8026543 123.336047,31.5774536 C123.233683,31.352253 123.069901,30.9632702 122.977774,30.7073604 C122.885646,30.4514506 122.742337,30.0829405 122.650209,29.8884491 C122.568318,29.6939577 122.465954,29.4380479 122.414772,29.3254476 C122.281699,28.9774103 122.087208,28.5167727 121.99508,28.3325176 C121.943898,28.2301537 121.902952,28.0766079 121.902952,27.9947167 C121.902952,27.9128256 121.862007,27.7592797 121.810825,27.6569158 C121.759643,27.5647883 121.667515,27.3395877 121.595861,27.1758054 C121.524206,27.0017868 121.432078,26.7868226 121.380897,26.694695 C121.329715,26.5923311 121.288769,26.4387853 121.288769,26.3568941 C121.288769,26.275003 121.247823,26.1214571 121.196641,26.0190932 C121.043096,25.7120015 120.899786,25.3434914 120.766713,24.9237994 C120.654113,24.5245801 120.572222,24.3198523 120.37773,23.8182691 C120.254893,23.5214138 120.111584,23.0914854 119.947802,22.5182474 C119.876147,22.2623377 119.794256,22.0064279 119.75331,21.9552459 C119.722601,21.8938276 119.630474,21.5969722 119.558819,21.2898805 C119.476928,20.9827888 119.3848,20.675697 119.354091,20.6245151 C119.313145,20.5630967 119.221018,20.3174233 119.149363,20.0615136 C119.077708,19.8056038 118.883217,19.1402384 118.709198,18.5772368 C118.197379,16.8370503 118.043833,16.3354672 117.931233,15.9157751 C117.869814,15.6905745 117.685559,15.0456819 117.511541,14.4826804 C117.337522,13.9196788 117.194213,13.3771501 117.194213,13.2747862 C117.194213,13.1826587 117.153267,13.0188764 117.102085,12.9165125 C117.020194,12.7527302 116.969012,12.5991844 116.682393,11.5653089 C116.610738,11.3093991 116.518611,10.992071 116.477665,10.8487615 C116.43672,10.705452 116.354828,10.4085967 116.29341,10.1833961 C116.231992,9.95819545 116.0375,9.3235392 115.873718,8.78101047 C115.699699,8.22824534 115.55639,7.68571661 115.55639,7.57311631 C115.55639,7.460516 115.515444,7.28649735 115.464262,7.18413344 C115.382371,7.02035118 115.126461,6.18096711 114.829606,5.11638242 C114.768188,4.86047264 114.624878,4.37936226 114.522514,4.04156135 C114.420151,3.70376044 114.30755,3.29430479 114.276841,3.13052253 C114.174477,2.65964854 111.185451,-0.165595433 110.990959,0.028896 C110.96025,0.0596051736 111.042141,0.469060821 111.175214,0.939934816 C111.410651,1.78955528 111.410651,1.78955528 111.400415,9.10857499 C111.400415,14.2574798 111.35947,16.775632 111.267342,17.6047797 C111.195687,18.2496723 111.093323,19.2835478 111.042141,19.9079677 C110.980723,20.5221512 110.898832,21.4229536 110.84765,21.904064 C110.796468,22.3851744 110.70434,23.3064496 110.653159,23.9513422 C110.499613,25.5584556 110.346067,27.1860418 110.22323,28.3529904 C110.172048,28.8852828 110.079921,29.8270308 110.028739,30.4514506 C109.977557,31.0656341 109.885429,32.0073821 109.824011,32.5192016 C109.568101,34.8223897 109.506683,35.4365731 109.414555,36.5932853 C109.312191,37.8114159 109.2303,38.7122183 109.0051,40.6878418 C108.943681,41.2508433 108.851554,42.2437733 108.800372,42.8886659 C108.738953,43.5335586 108.657062,44.4753065 108.60588,44.9871261 C108.544462,45.4887093 108.452334,46.45093 108.390916,47.1265319 C108.268079,48.5084447 108.145243,49.327356 107.991697,49.8494119 C107.940515,50.0439034 107.817678,50.504541 107.715314,50.873051 C107.623187,51.2415611 107.510586,51.630544 107.469641,51.7431443 C107.428695,51.8557446 107.346804,52.1321272 107.285386,52.3573278 C107.172786,52.7872562 106.906639,53.749477 106.742857,54.353424 C106.681439,54.5479155 106.599548,54.87548 106.548366,55.0699714 C106.497184,55.2644629 106.415293,55.5920274 106.353874,55.7865188 C106.302692,55.9810102 106.179856,56.4416478 106.087728,56.8101579 C105.872764,57.6802512 105.729454,58.1920707 105.555436,58.7550723 C105.473545,59.010982 105.360944,59.4204377 105.319999,59.6763475 C105.186926,60.4031312 104.695579,62.3685183 104.603451,62.593719 C104.470378,62.8905743 103.825486,65.081162 103.764067,65.4087265 C103.733358,65.6236907 103.866431,65.9819644 104.183759,66.5244932 C104.337305,66.7804029 104.66487,67.38435 104.910543,67.8654604 C105.156216,68.3465708 105.432599,68.848154 105.534963,68.9914634 C106.077492,69.7796656 106.968058,71.7757618 107.438932,73.2395658 C108.032642,75.0923526 108.073588,75.3073168 108.49328,77.7640507 C109.168882,81.8586072 108.575171,84.5303053 106.50742,86.6901838 C105.330235,87.9083144 104.183759,88.6965165 102.556173,89.3823547 C101.614425,89.7918103 100.222276,89.9453562 99.229346,89.7713376 C98.8915451,89.7099192 98.3899619,89.6177917 98.1033429,89.5768461 C96.3529201,89.3004636 93.8757134,87.0689303 91.746544,83.8444671 C91.2449608,83.0869741 91.2449608,83.0869741 91.2040153,80.8247317 C91.1733061,78.6750895 91.2244881,77.8459418 91.511107,76.4128471 C91.746544,75.2254257 92.0024538,74.2427321 92.1150541,74.0584771 C92.1559997,73.9970587 92.2378908,73.7513853 92.3197819,73.4954756 C92.3914367,73.2395658 92.5347461,72.8403465 92.63711,72.6049095 C92.7497104,72.3592361 92.8316015,72.1442719 92.8316015,72.1033264 C92.8316015,72.0316716 93.3843666,70.8340139 93.7631131,70.0969937 C93.9268953,69.7796656 94.0599684,69.4725738 94.0599684,69.4111555 C94.0599684,69.1552457 94.7765158,67.8449876 95.2678626,67.200095 C95.8513369,66.4323656 95.8820461,66.2992926 95.5954271,65.3575446 C95.4009357,64.7024155 94.807225,62.2149725 94.6741519,61.5188979 C94.6229699,61.2629881 94.5410788,60.8740052 94.4796605,60.6488046 C94.2442235,59.717293 94.1418596,59.297601 94.0599684,58.8574362 C94.0190229,58.6015264 93.9166589,58.2125435 93.8552406,57.9873429 C93.6914583,57.3936322 93.5481489,56.8306307 93.445785,56.2983384 C93.394603,56.0424286 93.3024755,55.6432093 93.2512935,55.3975359 C92.9851473,54.3329513 92.923729,54.0565687 92.8316015,53.4321488 C92.7804195,53.0636388 92.688292,52.5108736 92.63711,52.2037819 C92.5756917,51.8966902 92.4733278,51.343925 92.4221458,50.975415 C92.2890727,50.0643761 92.1355269,49.1840465 92.0126902,48.569863 C91.9512718,48.2832441 91.8693807,47.7611881 91.8079624,47.392678 C91.7055985,46.6658943 91.5520526,45.7855646 91.3882703,44.9871261 C91.3370884,44.7005072 91.2449608,44.147742 91.1937789,43.7587592 C91.1323605,43.3595399 91.0504694,42.8067748 90.9890511,42.5303922 C90.7536141,41.3122617 90.6717229,40.8516241 90.5795954,40.1760222 C90.4874679,39.4799476 90.3646312,38.783873 90.1599034,37.7192884 C90.098485,37.4326694 90.0165939,36.9106135 89.9654119,36.5421034 C89.9039936,36.1735933 89.8221025,35.6413009 89.7709205,35.3649184 C89.6583202,34.7507349 89.4843016,33.6759138 89.3409921,32.7034567 C89.2795737,32.3042374 89.1874462,31.7309995 89.1260279,31.4239078 C89.023664,30.8609063 88.9520092,27.216751 88.7472814,12.2306743 C88.685863,7.89044443 88.6039719,3.99037939 88.5732627,3.56045096 C88.5323172,3.07934057 88.5425536,2.71083049 88.6039719,2.63917575 C88.6551539,2.56752102 88.7677542,2.27066567 88.8291725,1.99428311 C88.9008273,1.70766416 89.0031912,1.39033603 89.0441367,1.27773573 C89.259101,0.755679774 89.4535924,0.192678259 89.4535924,0.100550738 C89.4535924,-0.114413477 88.9827184,0.0391323912 88.685863,0.335987736 L88.685863,0.335987736 Z" id="Path"></path>
            <path d="M99.649038,10.4597786 C99.6183288,10.5928517 99.5773833,10.8794707 99.5466741,11.1046713 C99.464783,11.7598003 99.3726555,12.2102015 99.2805279,12.4354021 C99.1679276,12.6913119 99.0962729,13.0700584 98.9734362,13.9708608 C98.9120178,14.3598437 98.8301267,14.943318 98.7687084,15.2504097 C98.5639805,16.3559399 98.4616166,17.0520145 98.3592527,17.8606895 C98.3080708,18.3110907 98.2159432,18.9764561 98.1647613,19.3449662 C97.9805062,20.5528603 97.8371968,21.5355539 97.7450693,22.3135196 C97.6938873,22.7332117 97.6017598,23.3985771 97.5403414,23.7977963 C97.4789231,24.1867792 97.3867956,24.8316719 97.3356136,25.2308911 C97.2844316,25.619874 97.1923041,26.2954758 97.1308858,26.7151678 C97.0694674,27.1348599 96.9773399,27.8002253 96.9159216,28.1994446 C96.8647396,28.5884274 96.7930849,29.1719017 96.7521393,29.4789935 C96.7214301,29.7860852 96.6088298,30.3183775 96.5064659,30.645942 C96.3836292,31.0144521 96.3119745,31.5467445 96.3119745,32.0176185 C96.3119745,32.9286573 96.1481922,33.993242 95.9229916,34.4948251 C95.748973,34.883808 95.6261363,35.3649184 95.5032996,36.1838297 C95.4214085,36.6751765 95.278099,37.3712511 95.0631348,38.2311079 C94.7867522,39.4185293 94.7662794,39.8075122 94.99148,40.3090953 C95.4214085,41.2815525 95.4725904,41.4146256 95.5340088,41.7114809 C95.5544815,41.8752632 95.6363727,42.2233005 95.697791,42.4792103 C95.8206277,42.9807934 95.9434644,43.6563953 96.1072467,44.7823983 C96.168665,45.1713811 96.2607925,45.7650918 96.3119745,46.08242 C96.5576479,47.4950419 96.6190662,47.9352068 96.7623757,49.4399563 C96.8545032,50.3100495 96.9671035,51.2313247 97.0182855,51.4872345 C97.0797038,51.7431443 97.1718313,52.3573278 97.2332497,52.8691473 C97.294668,53.3707305 97.397032,54.0463323 97.4482139,54.353424 C97.6836509,55.6534457 97.7450693,55.9605375 97.7962512,56.4007023 C97.8781423,56.9329946 98.000979,57.7723787 98.1647613,58.6731811 C98.2261796,59.0314548 98.3183072,59.6661111 98.3694891,60.0858031 C98.4616166,60.8740052 98.5537442,61.4677159 98.7687084,62.6449009 C98.8301267,63.013411 98.9222542,63.6275945 98.9734362,64.0268137 C99.0348545,64.4157966 99.1167457,65.0197437 99.178164,65.3575446 C99.3931282,66.5552023 99.4954921,67.3126953 99.5876197,68.2134977 C99.6695108,69.1347729 99.7718747,69.3702099 100.027784,69.267846 C100.18133,69.2064277 100.232512,68.8993359 100.406531,67.148913 C100.457713,66.6166207 100.54984,65.8284186 100.611259,65.4087265 C100.775041,64.3031963 100.908114,63.2386116 101.010478,62.1842633 C101.143551,60.9661328 101.307333,59.8298933 101.43017,59.2668918 C101.491588,59.010982 101.583716,58.4786897 101.634898,58.0897068 C101.68608,57.6904876 101.747498,57.2810319 101.767971,57.1684316 C101.860099,56.7999215 102.034117,55.8581735 102.146717,55.0699714 C102.290027,54.1384598 102.433336,53.2478938 102.556173,52.5620556 C102.607355,52.2754366 102.699483,51.6817259 102.760901,51.2313247 C102.832556,50.7809235 102.924683,50.2076856 102.965629,49.9517758 C103.139647,49.0714462 103.262484,48.3651352 103.375084,47.5974059 C103.477448,46.8808585 103.569576,46.5942395 103.794776,46.1438383 C103.845958,46.0414744 103.886904,45.8572194 103.886904,45.7241463 C103.886904,45.5910732 103.92785,45.4477637 103.968795,45.3965818 C104.019977,45.3351634 104.112105,45.0178353 104.183759,44.6800344 C104.255414,44.3422335 104.357778,43.9225414 104.40896,43.7382864 C104.531797,43.3493035 104.562506,41.9366815 104.449905,41.7626629 C104.40896,41.7012445 104.327069,41.3327345 104.275887,40.9642244 C104.224705,40.5854779 104.132577,40.0224764 104.081395,39.7153846 C104.030213,39.4082929 103.948322,38.8043458 103.886904,38.3846538 C103.835722,37.9649617 103.743594,37.3200691 103.692413,36.951559 C103.508157,35.6924829 103.364848,34.648371 103.27272,33.8294597 C103.221539,33.3790585 103.129411,32.6829839 103.067993,32.294001 C102.945156,31.5262717 102.812083,30.5026326 102.658537,29.2742656 C102.607355,28.8545736 102.515228,28.158499 102.453809,27.738807 C102.392391,27.3191149 102.300263,26.6025675 102.249081,26.1521663 C102.136481,25.2411275 101.993172,24.2174884 101.839626,23.2859768 C101.778207,22.9481759 101.696316,22.3032832 101.634898,21.852882 C101.583716,21.4024808 101.491588,20.6859334 101.43017,20.2662414 C101.164024,18.5362913 101.123078,18.2291995 101.020714,17.3488699 C100.959296,16.8370503 100.867169,16.1512121 100.815987,15.8134112 C100.764805,15.4756103 100.672677,14.8511904 100.611259,14.4314984 C100.43724,13.2645498 100.304167,12.0976012 100.242749,11.360581 C100.171094,10.3778875 100.119912,10.234578 99.8947114,10.234578 C99.7718747,10.234578 99.6797472,10.3164691 99.649038,10.4597786 L99.649038,10.4597786 Z M60.8735882,94.8792968 C60.6893331,95.1044974 60.3822414,95.6674989 60.1979864,96.1383729 C59.2664748,98.5439248 57.127069,99.9463104 52.6128205,101.133732 C52.3671471,101.205387 51.9576915,101.225859 51.6813089,101.184914 C51.1490166,101.113259 50.9852343,101.236096 50.4631783,102.177844 C50.0127771,102.996755 48.3135362,104.419613 46.5119313,105.494434 C45.0481274,106.364528 43.9016516,107.173203 43.9016516,107.336985 C43.9016516,108.14566 50.9545251,108.268496 57.7719617,107.582658 C60.5153145,107.306276 61.2318619,107.326748 61.7743906,107.685022 C62.4192833,108.114951 62.8799209,108.62677 63.1870126,109.271663 C63.9956875,110.940195 64.0775786,111.933124 63.4224496,112.199271 C63.2381946,112.270925 62.9003936,112.45518 62.6649566,112.618963 C62.4295196,112.772509 62.2145554,112.905582 62.1838463,112.905582 C62.1633735,112.905582 61.784627,113.130782 61.364935,113.417401 C60.9350065,113.693784 60.5664965,113.929221 60.5460237,113.929221 C60.5153145,113.929221 60.2594047,114.062294 59.9727858,114.236313 C59.6861668,114.400095 59.4097842,114.543404 59.3483659,114.543404 C59.2971839,114.543404 59.0617469,114.635532 58.8160736,114.737896 C58.5806366,114.850496 58.2940176,114.95286 58.1916537,114.973333 C58.068817,114.993805 57.8743256,115.219006 57.7207797,115.515861 C57.2191965,116.457609 56.9530504,116.887538 56.4924128,117.522194 C55.949884,118.259214 54.1789883,119.978928 53.1962948,120.715948 C52.5616385,121.186822 52.4899838,121.27895 52.520693,121.555332 C52.5514021,121.862424 52.5514021,121.862424 53.6774052,121.852188 C54.7317535,121.841951 56.2467394,121.729351 58.3861451,121.50415 C58.8979647,121.442732 59.7885307,121.350604 60.3822414,121.299422 C60.9759521,121.238004 61.733445,121.156113 62.071246,121.094695 C63.8319052,120.818312 64.1492334,120.76713 64.4767979,120.726185 C64.9579083,120.664766 65.8280015,120.480511 66.5240761,120.306492 C66.8311679,120.224601 67.2508599,120.122237 67.4453513,120.081292 C67.6398428,120.040346 67.9878801,119.91751 68.2028443,119.815146 C68.8272641,119.51829 69.4823932,119.559236 70.0965766,119.937982 C72.0722001,121.166349 73.3824582,122.701808 73.3824582,123.786865 C73.3824582,124.247503 73.2596215,124.339631 72.4714194,124.462467 C71.7958176,124.575068 71.5399078,124.708141 71.5399078,124.953814 C71.5399078,125.61918 67.332751,130.430283 65.971311,131.310613 C65.2445272,131.781487 65.1421633,131.955506 65.4185459,132.303543 C65.5720917,132.498034 65.684692,132.559453 65.8484743,132.508271 C65.9610746,132.477562 66.5957309,132.405907 67.2406235,132.344489 C67.8855162,132.293307 68.7863186,132.201179 69.2367198,132.149997 C69.687121,132.098815 70.4753231,132.006688 70.9769063,131.945269 C74.6517707,131.505104 75.5730459,131.474395 76.1053383,131.740541 C76.4943211,131.945269 76.6069214,131.965742 76.9447224,131.863378 C78.6439633,131.372031 80.5172229,131.095649 81.1928247,131.259431 C82.0424452,131.453922 82.1448091,132.180706 81.776299,135.220914 C81.7148806,135.702025 81.6227531,136.459518 81.5715712,136.909919 C81.48968,137.657176 81.4077889,138.158759 81.1518791,139.571381 C81.069988,140.042255 80.9266785,140.902112 80.7936054,141.782441 C80.7628963,141.987169 80.7833691,142.253315 80.8447874,142.365915 C80.9573877,142.570643 80.6707687,143.410027 80.2203675,144.177757 C80.1589492,144.290357 79.8825666,144.812413 79.6061841,145.334469 C78.8179819,146.869928 77.5077239,148.487277 76.6069214,149.040043 C76.1155747,149.347134 75.992738,149.828245 76.0848655,151.158976 C76.4533756,156.522845 76.5864487,161.231584 76.5045575,165.889142 C76.4226664,170.260081 76.2588841,169.656134 78.1321437,171.969559 C78.7565636,172.737288 78.7565636,172.737288 78.7872728,178.479904 C78.8077456,184.232755 78.8077456,184.232755 79.2172012,184.498902 C79.4424018,184.642211 79.6368932,184.765048 79.657366,184.765048 C79.7290208,184.765048 82.1038635,186.208379 82.718047,186.617835 C83.0353751,186.843035 83.3424668,187.017054 83.3834124,187.017054 C83.4345944,187.017054 83.6290858,187.150127 83.8235772,187.324146 C84.0180687,187.487928 84.2125601,187.621001 84.2535057,187.631237 C84.3968151,187.631237 87.5086781,189.780879 89.0134276,190.927355 C92.0433994,193.210071 93.210348,194.223473 94.8686433,196.025078 C96.4757567,197.765265 98.6253989,200.682636 99.0860365,201.726748 C99.229346,202.064549 99.229346,202.064549 100.21204,202.064549 C101.204969,202.064549 101.204969,202.064549 101.419934,201.603911 C101.54277,201.348002 101.634898,201.102328 101.634898,201.051146 C101.634898,200.928309 102.648301,198.962922 103.016811,198.379448 C104.030213,196.762098 106.057019,194.45891 107.469641,193.312434 C107.817678,193.025815 108.390916,192.565178 108.738953,192.288795 C109.291719,191.838394 109.977557,191.306102 111.922471,189.873007 C112.383109,189.535206 114.727242,187.928093 115.126461,187.682419 C115.218589,187.621001 115.761118,187.272964 116.344592,186.883981 C116.91783,186.505234 117.419413,186.198143 117.450122,186.198143 C117.480831,186.198143 117.787923,186.013888 118.115488,185.788687 C118.443052,185.563486 118.750144,185.379231 118.780853,185.379231 C118.821799,185.379231 119.036763,185.246158 119.2722,185.092612 C119.507637,184.939066 119.814729,184.754811 119.958038,184.683157 C120.766713,184.273701 120.705295,184.529611 120.797422,180.95711 C120.838368,179.196451 120.930495,176.688535 120.991914,175.39875 C121.104514,173.04438 121.104514,173.04438 122.291935,171.457739 C123.489593,169.871099 123.489593,169.871099 123.530539,161.886713 C123.61243,149.265243 123.622666,149.50068 122.885646,149.050279 C122.455718,148.784133 121.237587,147.504584 120.787186,146.849455 C120.428912,146.337635 120.080875,145.692743 119.395037,144.331303 C118.658016,142.857262 118.596598,142.713953 118.678489,142.406861 C118.780853,142.017878 118.770617,141.802914 118.637544,141.158021 C118.576125,140.85093 118.473761,140.298164 118.422579,139.929654 L118.217852,138.701287 C117.685559,135.783916 117.439886,132.05787 117.746978,131.597232 C118.033597,131.146831 119.435982,131.105885 120.981677,131.484632 C121.124987,131.515341 121.421842,131.586996 121.647043,131.638178 C121.872243,131.689359 122.271463,131.781487 122.527372,131.842905 C122.947064,131.955506 123.049428,131.945269 123.438411,131.740541 C123.827394,131.535814 123.991176,131.515341 124.707724,131.576759 C126.120346,131.679123 127.645568,131.832669 128.505425,131.945269 C129.590482,132.098815 130.910977,132.231888 132.313362,132.344489 C132.948019,132.39567 133.51102,132.467325 133.572438,132.508271 C133.910239,132.723235 134.452768,132.006688 134.186622,131.689359 C134.114967,131.607468 134.002367,131.535814 133.930712,131.535814 C133.275583,131.535814 128.873935,126.755419 128.034551,125.138069 C127.758168,124.605777 127.727459,124.585304 126.714056,124.401049 C126.253419,124.319158 126.253419,124.319158 126.22271,123.807338 C126.181764,123.162446 126.642402,122.200225 127.266821,121.637223 C128.095969,120.889967 129.119608,120.071055 129.221972,120.071055 C129.262918,120.071055 129.4267,119.968692 129.600719,119.856091 C129.93852,119.610418 130.736958,119.549 131.136177,119.733255 C131.63776,119.958455 131.89367,120.060819 132.139344,120.112001 C132.282653,120.132474 132.579508,120.204129 132.804709,120.265547 C133.51102,120.460038 134.114967,120.582875 134.800805,120.685239 C135.169315,120.736421 135.763026,120.828548 136.131536,120.889967 C137.196121,121.074222 138.158342,121.197059 139.202454,121.309659 C139.734746,121.360841 140.543421,121.442732 140.993822,121.493914 C143.112755,121.729351 144.678923,121.852188 145.804926,121.852188 C147.033293,121.862424 147.033293,121.862424 147.064002,121.596278 C147.094711,121.309659 147.115184,121.330132 145.497834,120.040346 C144.126158,118.945052 142.662354,117.204866 142.017461,115.894608 C141.597769,115.055224 141.464696,114.942623 140.533184,114.645768 C139.806401,114.410331 137.841014,113.407165 137.503213,113.100073 C137.390612,112.997709 137.257539,112.905582 137.216594,112.905582 C137.011866,112.905582 136.141773,112.158325 136.029172,111.881943 C135.947281,111.687451 135.916572,111.298468 135.947281,110.827594 C136.039409,109.425209 136.909502,108.381097 138.659925,107.592895 C139.130799,107.37793 139.284345,107.357458 139.888292,107.418876 C141.208786,107.562185 144.085212,107.787386 147.289203,107.992114 C150.84123,108.227551 155.457843,107.869277 155.560207,107.347221 C155.590916,107.183439 155.294061,106.978711 151.639669,104.593632 C150.124683,103.610938 148.834898,102.321153 148.507333,101.461296 C148.435678,101.266805 148.343551,101.236096 147.862441,101.236096 C147.360857,101.236096 147.033293,101.174677 145.784453,100.816404 C145.600198,100.765222 145.293106,100.683331 145.119088,100.632149 C144.934833,100.591203 144.484431,100.427421 144.126158,100.273875 C143.757648,100.130565 143.399374,100.007729 143.327719,100.007729 C142.979682,100.007729 141.08595,98.5848704 140.656021,98.0013961 C139.919001,96.9982297 139.386709,96.0155362 139.21269,95.3092252 C138.977253,94.3470044 138.895362,94.336768 137.779595,95.0840246 C136.848084,95.7084445 136.213427,96.0667181 133.470075,97.4691037 C131.965325,98.2470695 131.566106,98.3084878 130.040883,97.9604505 C128.843226,97.6943043 128.147151,97.7147771 127.430604,98.0423416 C127.062094,98.2061239 126.601456,98.4108517 126.406965,98.5029792 C125.434507,98.9124349 125.209307,99.045508 124.902215,99.3321269 C124.71796,99.4959092 124.564414,99.6801642 124.564414,99.7313462 C124.564414,99.7722918 124.380159,100.08962 124.154959,100.417184 C123.704557,101.08255 123.673848,101.215623 123.888812,101.625079 C124.165195,102.147135 125.485689,102.976282 126.44791,103.232192 C127.492022,103.508568 127.891241,103.80543 128.136915,104.511741 C128.208569,104.706232 128.310933,104.962142 128.351879,105.074742 C128.403061,105.187343 128.495188,105.504671 128.556607,105.79129 C128.628261,106.067672 128.843226,106.763747 129.037717,107.326748 C129.232209,107.88975 129.416464,108.432279 129.447173,108.524406 C129.488118,108.657479 129.406227,108.708661 128.996772,108.759843 C128.730625,108.800789 128.372352,108.872444 128.208569,108.923625 C127.768405,109.056699 126.243182,109.036226 125.9668,108.88268 C125.843963,108.821262 125.577817,108.637007 125.373089,108.473224 C125.168361,108.319678 124.963633,108.196842 124.922688,108.196842 C124.820324,108.196842 123.919522,107.439349 123.325811,106.845638 C122.762809,106.282637 122.343117,106.221218 121.247823,106.497601 C120.336785,106.743274 120.070638,106.978711 119.476928,108.14566 C118.64778,109.76301 118.207615,111.134686 118.453289,111.298468 C119.630474,112.096907 120.275366,112.588254 120.367494,112.803218 C120.439149,112.946527 120.531276,113.141019 120.582458,113.233146 C120.63364,113.33551 120.674586,113.499292 120.674586,113.601656 C120.674586,113.714257 120.756477,114.164658 120.869077,114.604823 C120.971441,115.055224 121.11475,115.68988 121.186405,116.027681 C121.25806,116.365482 121.350187,116.754465 121.391133,116.897774 C121.432078,117.041084 121.534442,117.501721 121.606097,117.921413 C121.677752,118.341105 121.769879,118.760797 121.810825,118.852925 C121.88248,118.985998 121.821061,119.057653 121.565152,119.14978 C121.391133,119.221435 121.14546,119.313563 121.022623,119.374981 C120.869077,119.446636 120.715531,119.426163 120.439149,119.262381 C119.804492,118.904107 118.832035,118.637961 118.16667,118.637961 C117.562723,118.637961 116.344592,118.955289 116.119391,119.160017 C116.068209,119.211199 115.955609,119.252144 115.863482,119.252144 C115.628045,119.252144 115.105989,119.51829 114.921734,119.733255 C114.81937,119.856091 114.737479,120.245074 114.696533,120.889967 C114.635115,121.790769 114.522514,122.814408 114.368969,123.807338 C114.328023,124.022302 114.205186,124.37034 114.092586,124.575068 C113.979986,124.769559 113.744549,125.179015 113.580766,125.486106 C113.427221,125.793198 113.20202,126.171945 113.08942,126.32549 C112.987056,126.479036 112.894928,126.653055 112.894928,126.72471 C112.894928,126.786128 112.761855,127.042038 112.587836,127.287711 C112.424054,127.533385 112.280745,127.758585 112.280745,127.799531 C112.280745,127.83024 111.942944,128.475133 111.523252,129.212153 C111.113796,129.959409 110.550795,130.972812 110.284648,131.484632 C110.018502,131.986215 109.762593,132.457089 109.721647,132.508271 C109.629519,132.610635 109.127936,133.542146 108.820845,134.146093 C108.738953,134.309876 108.49328,134.75004 108.288552,135.118551 C107.807442,135.957935 107.418459,136.664246 107.049949,137.350084 C106.886167,137.646939 106.630257,138.12805 106.466475,138.424905 C106.302692,138.711524 106.036546,139.213107 105.862527,139.520199 C105.698745,139.82729 105.442835,140.287928 105.299526,140.543838 C105.156216,140.799748 104.89007,141.280858 104.705815,141.618659 C104.52156,141.95646 104.255414,142.43757 104.112105,142.69348 C103.968795,142.94939 103.723122,143.410027 103.549103,143.717119 C103.088465,144.576976 102.719955,145.252578 102.443573,145.754161 C102.116008,146.347872 102.003408,146.378581 99.9049478,146.378581 C97.8371968,146.378581 97.9805062,146.429763 97.4584503,145.457306 C97.294668,145.150214 97.059231,144.710049 96.926158,144.484848 C96.4859931,143.717119 95.4725904,141.925751 95.1859715,141.413931 C95.0324256,141.127312 94.807225,140.717857 94.6741519,140.492656 C94.5410788,140.267455 94.3056418,139.82729 94.1418596,139.520199 C93.9780773,139.213107 93.8040586,138.916252 93.7528767,138.854833 C93.6607492,138.742233 93.3536574,138.199704 92.9339654,137.421739 C92.7804195,137.13512 92.5552189,136.725664 92.4221458,136.500463 C92.2890727,136.275263 92.0126902,135.794152 91.8079624,135.425642 C91.6032345,135.057132 91.326852,134.576022 91.1937789,134.350821 C91.0607058,134.125621 90.8252688,133.685456 90.6614865,133.378364 C90.4977043,133.071272 90.3236856,132.774417 90.2725037,132.712999 C90.2213217,132.65158 90.0473031,132.354725 89.8835208,132.047633 C89.7197386,131.740541 89.4843016,131.300377 89.3512285,131.075176 C89.2181554,130.849975 88.9929548,130.430283 88.8394089,130.153901 C88.685863,129.867282 88.4094805,129.386171 88.2252254,129.07908 C88.0409704,128.771988 87.7645878,128.280641 87.611042,128.004259 C87.1606408,127.175111 86.8842582,126.694001 86.6795304,126.397145 C86.5669301,126.253836 86.4850389,126.079817 86.4850389,126.008162 C86.4850389,125.946744 86.3519659,125.701071 86.19842,125.465634 C86.0346377,125.230197 85.8708555,124.85145 85.8196735,124.62625 C85.5944729,123.408119 85.3590359,121.596278 85.307854,120.582875 C85.256672,119.682073 85.0928897,119.477345 84.130669,119.129307 C82.2267002,118.443469 81.356607,118.453706 79.8620938,119.180489 C79.4321654,119.385217 79.1660192,119.456872 79.0431825,119.40569 C78.9408186,119.354508 78.6541997,119.241908 78.3982899,119.14978 C77.8864703,118.965525 77.825052,118.740325 78.0809618,117.870231 C78.1526165,117.645031 78.2549804,117.256048 78.3163988,117.000138 C78.4187627,116.529264 78.5211266,116.130045 78.6951452,115.413497 C78.8384547,114.860732 79.0124734,114.062294 79.1148373,113.581183 C79.2069648,113.151255 79.4935838,112.700854 79.7904391,112.547308 C80.1487128,112.352817 81.4589709,111.339414 81.5101528,111.206341 C81.5306256,111.144922 81.5203892,110.929958 81.4692073,110.735467 C81.4282617,110.551212 81.3361342,110.192938 81.2849522,109.937028 C81.1825883,109.527573 80.7424235,108.503933 79.9644578,106.886584 C79.6266568,106.190509 79.1762556,105.709399 78.9408186,105.770817 C78.8384547,105.801526 78.4904174,105.90389 78.1730893,105.985781 C77.7226881,106.118854 77.4463055,106.282637 76.9549587,106.743274 C76.2998297,107.347221 75.9313196,107.623604 74.6108252,108.51417 C73.8430958,109.036226 73.8430958,109.036226 72.8194567,108.985044 C71.2532889,108.903153 70.4139048,108.708661 70.5981598,108.473224 C70.6391054,108.40157 70.7414693,108.094478 70.8233604,107.787386 C70.8950152,107.480294 70.9973791,107.142493 71.048561,107.040129 C71.0895066,106.948002 71.1713977,106.78422 71.2123433,106.681856 C71.2635252,106.589728 71.3658892,106.251927 71.4375439,105.944836 C71.5603806,105.392071 71.6832173,105.044033 71.8572359,104.695996 C71.9084179,104.593632 71.9493635,104.460559 71.9493635,104.399141 C71.9493635,104.040867 72.8296931,103.283374 73.2493851,103.283374 C73.3210399,103.283374 73.6793136,103.150301 74.0273509,102.996755 C74.3753882,102.832973 74.7950802,102.66919 74.9588625,102.628245 C75.3273725,102.536117 76.0132108,101.850279 76.1053383,101.492005 C76.1565202,101.287278 76.0848655,101.103023 75.7982465,100.673094 C75.5935187,100.366002 75.4297365,100.079383 75.4297365,100.048674 C75.4297365,99.8337101 74.6210616,98.9738532 74.2627879,98.7895982 C72.8501659,98.0935236 71.9800726,97.7454863 71.7446356,97.7864319 C71.5091986,97.8273774 70.2705953,98.2573059 69.7485393,98.4722701 C68.8886825,98.8305438 68.796555,98.8203074 68.2642626,98.4006153 C68.1823715,98.339197 67.5374789,97.9809233 66.8311679,97.6226496 C64.087815,96.2100276 62.6956658,95.4218255 61.7436814,94.7769329 C61.2216255,94.4084228 61.2830438,94.3981864 60.8735882,94.8792968 L60.8735882,94.8792968 Z" id="Shape"></path>
        </g>
    </g>
</svg>