<?xml version="1.0" encoding="UTF-8"?>
<svg width="80px" height="75px" viewBox="0 0 80 75" version="1.1" xmlns="http://www.w3.org/2000/svg" xmlns:xlink="http://www.w3.org/1999/xlink">
    <title>portal</title>
    <g id="portal" stroke="none" stroke-width="1" fill="none" fill-rule="evenodd">
        <path d="M37.687351,73.7184868 C34.4746077,73.3758604 30.9499475,72.0676506 28.1115044,70.1987794 C26.4583451,69.1086045 26.1152366,68.4544996 26.6143036,67.4889162 C27.0197954,66.7102198 27.4252873,66.7102198 29.0472548,67.4889162 C29.7334719,67.8315425 30.5132639,68.1118732 30.7627974,68.1118732 C30.9811392,68.1118732 31.293056,68.2053168 31.4178228,68.3299082 C32.6031067,69.5135266 41.9606116,69.5446745 43.301854,68.361056 C43.4578124,68.2364646 43.8009209,68.1118732 44.0504544,68.1118732 C44.7054797,68.1118732 48.1365649,66.4921849 48.1365649,66.1807063 C48.1365649,66.0561149 48.2925233,65.9315235 48.4484817,65.9315235 C48.6356318,65.9315235 49.1658904,65.5577493 49.602574,65.1216793 C50.4135577,64.3118352 50.4135577,64.3118352 49.0411237,64.5298701 C48.2925233,64.6544615 47.4191562,64.8724965 47.138431,65.0282358 C46.8577059,65.183975 46.1402972,65.3085665 45.5164635,65.3085665 C44.9238215,65.3085665 44.3311795,65.4643057 44.2376045,65.620045 C43.988071,66.0249671 35.2855915,66.0249671 34.8489079,65.6511928 C34.6929495,65.4954536 33.9443491,65.3085665 33.164557,65.2151229 C30.4820723,64.9347922 23.2767935,62.1314854 22.933685,61.1970499 C22.8713016,61.0724584 22.6217681,60.947867 22.3722347,60.947867 C22.1227012,60.947867 21.4988675,60.5429449 20.9686089,60.0134314 C20.4383503,59.5150658 19.7209416,59.0167001 19.4090248,58.9232566 C19.0659163,58.7986652 18.8163828,58.5806302 18.8163828,58.4248909 C18.8163828,58.2691517 18.5668493,58.1445603 18.2861242,58.1445603 C17.6934822,58.1445603 15.6036394,57.4593075 15.3852977,57.1789768 C15.2917226,57.0855333 14.6366973,56.7429069 13.9192886,56.4314283 C13.1706882,56.088802 12.5780462,55.7461756 12.5780462,55.5904363 C12.5780462,55.4658449 12.3597044,55.3412535 12.1101709,55.3412535 C11.8606375,55.3412535 11.6422957,55.2166621 11.6422957,55.029775 C11.6422957,54.8740357 11.4551456,54.7182964 11.2368038,54.7182964 C10.7065452,54.7182964 6.40209295,50.5133363 5.40395909,49.0182393 C4.96727553,48.3952823 4.53059196,47.8657688 4.40582523,47.8657688 C4.24986682,47.8657688 4.15629177,47.6788816 4.15629177,47.4296988 C4.15629177,47.180516 4.03152503,46.9313332 3.9067583,46.8690375 C3.56364979,46.7444461 1.97287395,43.2870344 1.97287395,42.726373 C1.97287395,42.4771902 1.84810722,42.2591552 1.66095712,42.2591552 C1.50499871,42.2591552 1.34904029,41.9476767 1.34904029,41.5427546 C1.34904029,41.1378325 1.22427356,40.7017626 1.09950683,40.5460233 C-0.366502276,38.8640392 -0.366502276,24.8163575 1.09950683,24.8163575 C1.22427356,24.8163575 1.34904029,24.5983226 1.34904029,24.3802876 C1.34904029,23.8196262 3.25173296,20.5802495 4.21867513,19.4900747 C5.43515077,18.150717 6.18375116,17.8703863 6.99473492,18.5556391 C7.68095195,19.1163004 7.68095195,19.1163004 6.55805136,21.4212416 C4.96727553,24.722914 4.71774206,25.8130888 4.84250879,29.177057 C4.99846721,32.3852858 5.5599175,34.7836705 6.86996819,37.5246816 C7.80571868,39.5181442 8.80385254,40.7640583 8.36716898,39.4558485 C7.9616771,38.2099343 8.05525215,30.7344496 8.49193571,28.8655784 C9.27172779,25.6573496 9.8019864,23.7261827 10.0827115,23.1032256 C10.2074783,22.7605992 10.5193951,22.0130508 10.7689286,21.4835373 C10.9872704,20.9228759 11.2679955,20.4556581 11.3615706,20.4556581 C11.4863373,20.4556581 11.6422957,20.0818839 11.7358707,19.6146661 C11.8294458,19.1163004 12.203746,18.4310477 12.5468545,18.0572734 C12.9211547,17.6834992 13.2018799,17.2474293 13.2018799,17.09169 C13.2018799,16.9670986 13.4514133,16.5621765 13.7633301,16.2195501 C14.075247,15.9080716 14.4807389,15.3785581 14.6366973,15.0670795 C15.0421892,14.3818268 19.0971079,10.1768666 19.3778331,10.1768666 C19.5025998,10.1768666 20.0640501,9.74079668 20.6566921,9.24243103 C21.2181424,8.71291753 21.8107844,8.30799544 21.9667428,8.30799544 C22.0915095,8.30799544 22.4034264,8.12110832 22.6217681,7.90307335 C23.1520267,7.40470771 26.3647701,5.8161672 26.863837,5.8161672 C27.0509871,5.8161672 27.2381372,5.69157579 27.2381372,5.50468867 C27.2381372,5.13091444 25.6473614,5.09976658 24.6804192,5.47354082 C24.2749273,5.62928008 23.3391768,5.94075861 22.5593848,6.15879359 C21.7795927,6.40797641 20.5631171,6.90634206 19.8145167,7.28011629 C18.2549325,8.12110832 17.3815654,8.18340403 17.1320319,7.52929912 C16.8201151,6.65715923 18.1301658,4.57025308 19.0035329,4.57025308 C19.2218747,4.57025308 19.4402165,4.44566167 19.5025998,4.2899224 C19.6897499,3.7604089 23.3703685,1.86038987 25.5537863,1.14398925 C29.32798,-0.0707770172 37.1259008,-0.382255547 40.9624778,0.52103219 C43.2082789,1.05054569 45.8283803,1.79809416 46.4210223,2.04727699 C50.3199827,3.82270461 52.2226753,4.81943591 53.1896175,5.59813223 C54.2189431,6.40797641 54.9675435,6.68830709 57.8995617,7.28011629 C58.3674369,7.37355985 58.7417371,7.56044697 58.7417371,7.71618624 C58.7417371,7.8719255 59.147229,7.99651691 59.6462959,7.99651691 C60.1453628,7.99651691 60.6132381,8.08996047 60.6756215,8.24569974 C60.7380048,8.37029115 61.6737553,8.8686568 62.7966559,9.3981703 C63.9195565,9.89653595 65.0424571,10.5817887 65.3231822,10.8621194 C65.6039074,11.1735979 65.9782076,11.4227807 66.134166,11.4227807 C66.3213161,11.4227807 66.820383,11.7654071 67.2882583,12.2014771 C67.7561335,12.637547 68.2240088,12.9801734 68.3487755,12.9801734 C68.7230757,13.0113212 71.6239022,15.8769237 72.6220361,17.1851336 C73.121103,17.8703863 73.7761283,18.7113783 74.0880452,19.0228569 C74.399962,19.3654833 74.6494955,19.8015532 74.6494955,20.0195882 C74.6494955,20.2376231 74.7430705,20.4556581 74.8990289,20.5179538 C75.3045208,20.6736931 77.0200634,24.4737312 77.7062804,26.6852287 C79.8896982,33.6311999 79.2970562,40.2656926 76.0219295,45.3739405 C74.0568535,48.4264301 72.7156111,49.3297179 71.7798606,48.2706909 C71.3431771,47.7723252 71.3743687,47.5231424 72.3101192,45.5296798 C72.8715695,44.3460614 73.4642115,42.8509644 73.6825533,42.2280074 C74.0880452,40.9197975 74.1504285,35.7492539 73.7449367,34.7213748 C73.5889782,34.3164527 73.2770614,33.3820171 73.0587196,32.6033208 C72.5596527,30.8278932 71.0000685,27.4016293 70.5945767,27.1524465 C70.2202765,26.9344115 70.4386183,28.959022 70.9376852,30.7344496 C71.5615188,32.8213558 71.0000685,39.3001092 69.877168,43.3493301 C69.1909509,45.7788626 66.6020412,51.2920326 65.6974824,52.1641725 C64.948882,52.9428688 64.5745818,53.9084523 64.1378983,56.2756891 C63.4828729,59.9511357 63.3581062,60.32491 63.0773811,60.32491 C62.9214226,60.32491 62.7966559,60.6052406 62.7966559,60.947867 C62.7966559,61.2904934 62.6718892,61.5708241 62.4847391,61.5708241 C62.3287807,61.5708241 62.1728222,61.7577112 62.1728222,62.006894 C62.1728222,64.0315045 54.1565597,71.5381371 51.9731419,71.5381371 C51.7548001,71.5381371 51.56765,71.6627285 51.56765,71.7873199 C51.56765,71.9119113 50.9126247,72.192242 50.1016409,72.4414248 C49.2594655,72.6594598 48.2925233,72.9709383 47.8870314,73.1266776 C47.0760476,73.4381561 42.1789534,74.0299653 40.8065194,73.9988174 C40.3074524,73.9676696 38.872635,73.8430782 37.687351,73.7184868 Z M37.566378,52.2480989 C38.0064868,51.969184 38.7923954,51.5353163 39.2953768,51.2873919 C41.24443,50.3576754 43.0677378,49.1180535 44.8910456,47.4755544 C45.8970085,46.545838 46.9029715,46.4838569 47.4059529,47.2896111 C47.8146254,47.9404126 46.8400988,49.8618267 45.2682817,51.5043257 C44.6709912,52.1241367 44.1680098,52.7439477 44.1680098,52.8679099 C44.1680098,53.611683 49.8265512,51.0394675 51.5869863,49.5209306 C52.1214041,49.0250819 52.938749,48.3742803 53.4102941,48.0333843 C53.8504029,47.6924883 54.227639,47.2896111 54.227639,47.1656489 C54.227639,47.0106962 54.4162571,46.7007907 54.6363115,46.4838569 C57.1512188,43.6637169 58.2514907,40.7506054 57.4655822,38.8291914 C56.9311644,37.5275883 54.3533844,33.0029682 53.9447119,32.6930627 C53.8504029,32.6000911 53.3474215,31.9802801 52.8130037,31.2984881 C52.3100222,30.616696 51.1468776,29.315093 50.2352237,28.416367 C48.5376612,26.7118869 48.0975524,25.5032555 49.0406427,25.1313689 C49.6693695,24.9144351 51.3983683,25.2553311 51.3983683,25.5962271 C51.3983683,25.7511799 51.55555,25.8751421 51.744168,25.8751421 C52.2157132,25.8751421 55.6422744,28.2924048 56.9940371,29.5630173 C58,30.5237243 58,30.5237243 58,29.7489606 C58,28.9741969 57.0569098,26.7118869 56.6796737,26.5569341 C56.522492,26.494953 56.4281829,26.2470286 56.4281829,25.9681137 C56.4281829,25.2243405 51.55555,19.6770323 50.8953868,19.6770323 C50.8010778,19.6770323 50.2037873,19.3361363 49.5121878,18.9022686 C48.8205883,18.4684009 48.0661161,18.1275049 47.783189,18.1275049 C47.5316983,18.1275049 47.3116439,18.0035427 47.3116439,17.8175994 C47.3116439,17.6626467 47.0601532,17.5076939 46.7457898,17.5076939 C46.4314263,17.5076939 46.0227539,17.3527412 45.8341358,17.1667979 C45.6140815,16.9498641 45.299718,16.9498641 44.9224819,17.1358074 C44.5766822,17.3217507 43.4764102,17.8175994 42.4704473,18.2824577 C41.433048,18.7163253 40.0184127,19.5220796 39.2639405,20.0179284 C38.5409046,20.5137772 37.8493051,20.9166543 37.7235597,20.9166543 C37.1262693,20.9166543 31.5934732,26.494953 31.5934732,27.114764 C31.5934732,27.2387262 31.4677278,27.4246695 31.3419824,27.4866506 C31.1848007,27.5486317 30.6189466,28.2304238 30.0530924,29.0671686 C28.9528205,30.6786771 28.9842568,30.6476865 28.1040393,30.2138189 C27.4753124,29.8729228 27.255258,28.2304238 27.8211122,27.8895277 C28.0097302,27.7965561 28.1354756,27.3936789 28.1354756,27.0217924 C28.1354756,26.154057 29.7701654,22.2802384 30.4617649,21.5054747 C30.7446919,21.1645787 30.9647463,20.7926921 30.9647463,20.6377394 C30.9647463,20.4827866 31.0904917,20.2968433 31.2162371,20.2348622 C31.3419824,20.2038717 31.7820912,19.6150512 32.1907636,18.9642497 C32.9137995,17.7866089 32.9137995,17.7866089 32.0335819,18.0035427 C31.5306005,18.1275049 31.0590554,18.3134482 30.9647463,18.4064199 C30.8704373,18.530382 30.3988922,18.8712781 29.9273471,19.150193 C28.0411666,20.3278339 25.3062049,22.7450967 25.3062049,23.2099549 C25.3062049,23.3958982 25.0547141,23.7058037 24.7717871,23.891747 C24.0487512,24.3566052 22.4140614,27.5796222 21.5652802,30.1828283 C20.9994261,31.8873085 20.810808,35.8231082 21.2194805,37.8065033 C21.8482073,41.0915014 21.91108,41.3704164 22.1940071,41.3704164 C22.3511888,41.3704164 22.4769341,41.6183407 22.4769341,41.9282462 C22.4769341,42.8579627 25.4948229,47.2586206 27.0352036,48.5602236 C28.4184027,49.7068739 30.2417105,50.9774864 30.5875102,50.9774864 C30.7761283,50.9774864 30.9647463,51.1324392 30.9647463,51.2873919 C30.9647463,51.4733352 31.1848007,51.5972974 31.4362915,51.5972974 C31.6877822,51.5972974 32.3793817,51.8762123 32.9766722,52.1861178 C34.7685436,53.1778154 36.0574336,53.2088059 37.566378,52.2480989 Z" id="Shape" fill="#FFFFFF" fill-rule="nonzero" transform="translate(39.500000, 37.000000) scale(-1, 1) rotate(-180.000000) translate(-39.500000, -37.000000) "></path>
    </g>
</svg>