<svg xmlns="http://www.w3.org/2000/svg" width="76" height="13" viewBox="0 0 76 13"><g fill="current" transform="translate(.07 .571)"><g transform="translate(20.682)"><path d="M6.36075949 3.96835443 4.15822785 3.96835443 4.15822785 2.10759494C4.15822785 1.90506329 4.12025316 1.76898734 4.0443038 1.69936709 3.96835443 1.62974683 3.82911393 1.59493671 3.62658228 1.59493671L2.73417722 1.59493671C2.53164557 1.59493671 2.39240506 1.62974683 2.3164557 1.69936709 2.24050633 1.76898734 2.20253165 1.90506329 2.20253165 2.10759494L2.20253165 9.89240506C2.20253165 10.0949367 2.24050633 10.2310126 2.3164557 10.3006329 2.39240506 10.3702532 2.53164557 10.4050633 2.73417722 10.4050633L3.62658228 10.4050633C3.82911393 10.4050633 3.96835443 10.3702532 4.0443038 10.3006329 4.12025316 10.2310126 4.15822785 10.0949367 4.15822785 9.89240506L4.15822785 8.06962025 6.36075949 8.06962025 6.36075949 10.1202532C6.36075949 11.3734177 5.67088609 12 4.29113924 12L2.06962025 12C.689873416 12 0 11.3734177 0 10.1202532L0 1.87974684C0 .626582278.689873416 0 2.06962025 0L4.29113924 0C5.67088609 0 6.36075949.626582278 6.36075949 1.87974684L6.36075949 3.96835443ZM13.1962025 11.9810127 12.7405063 9.49367089 10.1202532 9.49367089 9.70253165 11.9810127 7.51898734 11.9810127 9.93037975 0 12.8734177 0 15.3987342 11.9810127 13.1962025 11.9810127ZM10.4050633 7.84177215 12.4367089 7.84177215 11.3924051 2.10759494 10.4050633 7.84177215ZM20.6392405 9.79746835 20.6392405 7.23417722C20.6392405 7.03164555 20.6012658 6.89556964 20.5253165 6.82594937 20.4493671 6.7563291 20.3101266 6.72151899 20.1075949 6.72151899L18.5696203 6.72151899C17.2658228 6.72151899 16.6139241 6.08860761 16.6139241 4.82278481L16.6139241 1.87974684C16.6139241.626582278 17.2974684 0 18.664557 0L20.7531646 0C22.1202532 0 22.8037975.626582278 22.8037975 1.87974684L22.8037975 3.55063291 20.6012658 3.55063291 20.6012658 2.1835443C20.6012658 1.98101266 20.5632911 1.84493671 20.4873418 1.77531646 20.4113924 1.7056962 20.2721519 1.67088608 20.0696203 1.67088608L19.3481013 1.67088608C19.1329114 1.67088608 18.9873418 1.7056962 18.9113924 1.77531646 18.835443 1.84493671 18.7974684 1.98101266 18.7974684 2.1835443L18.7974684 4.59493671C18.7974684 4.79746837 18.835443 4.93354429 18.9113924 5.00316456 18.9873418 5.07278483 19.1329114 5.10759494 19.3481013 5.10759494L20.8481013 5.10759494C22.1772152 5.10759494 22.8417722 5.72784812 22.8417722 6.96835443L22.8417722 10.1012658C22.8417722 11.3544304 22.1518987 11.9810127 20.7721519 11.9810127L18.721519 11.9810127C17.3417721 11.9810127 16.6518987 11.3544304 16.6518987 10.1012658L16.6518987 8.44936709 18.835443 8.44936709 18.835443 9.79746835C18.835443 10 18.8734177 10.1360759 18.9493671 10.2056962 19.0253165 10.2753165 19.1708861 10.3101266 19.3860759 10.3101266L20.1075949 10.3101266C20.3101266 10.3101266 20.4493671 10.2753165 20.5253165 10.2056962 20.6012658 10.1360759 20.6392405 10 20.6392405 9.79746835ZM29.0506329 0 31.2341772 0 31.2341772 10.1012658C31.2341772 11.3544304 30.5443038 11.9810127 29.164557 11.9810127L26.8481013 11.9810127C25.4683544 11.9810127 24.778481 11.3544304 24.778481 10.1012658L24.778481 0 26.9620253 0 26.9620253 9.79746835C26.9620253 10 27 10.1360759 27.0759494 10.2056962 27.1518987 10.2753165 27.2911392 10.3101266 27.4936709 10.3101266L28.5 10.3101266C28.7151899 10.3101266 28.8607595 10.2753165 28.9367089 10.2056962 29.0126582 10.1360759 29.0506329 10 29.0506329 9.79746835L29.0506329 0ZM38.335443 11.9810127 37.8797468 9.49367089 35.2594937 9.49367089 34.8417722 11.9810127 32.6582278 11.9810127 35.0696203 0 38.0126582 0 40.5379747 11.9810127 38.335443 11.9810127ZM35.5443038 7.84177215 37.5759494 7.84177215 36.5316456 2.10759494 35.5443038 7.84177215Z"/><polygon points="44.165 10.31 47.354 10.31 47.354 11.981 41.981 11.981 41.981 0 44.165 0"/><path d="M52.5,9.79746835 L52.5,7.23417722 C52.5,7.03164555 52.4620253,6.89556964 52.3860759,6.82594937 C52.3101266,6.7563291 52.1708862,6.72151899 51.9683544,6.72151899 L50.4303797,6.72151899 C49.1265821,6.72151899 48.4746835,6.08860761 48.4746835,4.82278481 L48.4746835,1.87974684 C48.4746835,0.626582278 49.1582278,0 50.5253165,0 L52.6139241,0 C53.9810127,0 54.664557,0.626582278 54.664557,1.87974684 L54.664557,3.55063291 L52.4620253,3.55063291 L52.4620253,2.1835443 C52.4620253,1.98101266 52.4240506,1.84493671 52.3481013,1.77531646 C52.2721519,1.7056962 52.1329116,1.67088608 51.9303797,1.67088608 L51.2088608,1.67088608 C50.993671,1.67088608 50.8481013,1.7056962 50.7721519,1.77531646 C50.6962025,1.84493671 50.6582278,1.98101266 50.6582278,2.1835443 L50.6582278,4.59493671 C50.6582278,4.79746837 50.6962025,4.93354429 50.7721519,5.00316456 C50.8481013,5.07278483 50.993671,5.10759494 51.2088608,5.10759494 L52.7088608,5.10759494 C54.0379747,5.10759494 54.7025316,5.72784812 54.7025316,6.96835443 L54.7025316,10.1012658 C54.7025316,11.3544304 54.0126584,11.9810127 52.6329114,11.9810127 L50.5822785,11.9810127 C49.2025315,11.9810127 48.5126582,11.3544304 48.5126582,10.1012658 L48.5126582,8.44936709 L50.6962025,8.44936709 L50.6962025,9.79746835 C50.6962025,10 50.7341772,10.1360759 50.8101266,10.2056962 C50.8860759,10.2753165 51.0316457,10.3101266 51.2468354,10.3101266 L51.9683544,10.3101266 C52.1708862,10.3101266 52.3101266,10.2753165 52.3860759,10.2056962 C52.4620253,10.1360759 52.5,10 52.5,9.79746835 Z"/></g><g transform="translate(0 2.454)"><polygon points="4.785 .541 4.785 1.794 3.204 1.794 3.204 9.527 1.566 9.527 1.566 1.794 0 1.794 0 .541"/><path d="M8.35917722 2.53481013 8.78639241 2.53481013C9.76424051 2.53481013 10.2531646 3.00474684 10.2531646 3.94462025L10.2531646 9.52689873 8.62974684 9.52689873 8.62974684 4.17246835C8.62974684 4.02056962 8.60126582 3.91851266 8.5443038 3.86629747 8.48734177 3.81408228 8.38291139 3.78797468 8.23101266 3.78797468L7.80379747 3.78797468C7.50949367 3.78797468 7.36234177 3.94462025 7.36234177 4.25791139L7.36234177 9.52689873 5.75316456 9.52689873 5.75316456 0 7.36234177 0 7.36234177 3.13291139C7.50474684 2.73417722 7.83702532 2.53481013 8.35917722 2.53481013ZM13.2009494 2.53481013 14.710443 2.53481013C15.7357595 2.53481013 16.2484177 3.00474684 16.2484177 3.94462025L16.2484177 6.49367089 13.2151899 6.49367089 13.2151899 7.93196203C13.2151899 8.08386076 13.2412975 8.18591772 13.2935127 8.23813291 13.3457278 8.2903481 13.4525316 8.3164557 13.6139241 8.3164557L14.2689873 8.3164557C14.4208861 8.3164557 14.5253165 8.2903481 14.5822785 8.23813291 14.6392405 8.18591772 14.6677215 8.08386076 14.6677215 7.93196203L14.6677215 7.40506329 16.2341772 7.40506329 16.2341772 8.11708861C16.2341772 9.05696203 15.7167722 9.52689873 14.681962 9.52689873L13.2009494 9.52689873C12.1661392 9.52689873 11.6487342 9.05696203 11.6487342 8.11708861L11.6487342 3.94462025C11.6487342 3.00474684 12.1661392 2.53481013 13.2009494 2.53481013ZM13.2151899 5.45411392 14.6962025 5.45411392 14.6962025 4.11550633C14.6962025 3.96360759 14.6677215 3.86155063 14.6107595 3.80933544 14.5537975 3.75712025 14.4493671 3.73101266 14.2974684 3.73101266L13.6139241 3.73101266C13.4620253 3.73101266 13.3575949 3.75712025 13.3006329 3.80933544 13.2436709 3.86155063 13.2151899 3.96360759 13.2151899 4.11550633L13.2151899 5.45411392Z"/></g></g></svg>